<svg id="Слой_1" data-name="Слой 1" xmlns="http://www.w3.org/2000/svg" viewBox="0 0 136.48 20.62"><defs><style>.cls-1{fill:#2e9bfc;}.cls-2{fill:#fff;}</style></defs><title>1xstavka_1</title><path class="cls-1" d="M48.47.93l-.86,5.26a16.15,16.15,0,0,0-4.38-1.13c-3.14,0-6,2.22-6,5.42,0,4,2.48,5,5.29,4.87a8.57,8.57,0,0,0,3.11-.77L47.45,14l.8,4.9-1.47.57a13,13,0,0,1-6,1.13c-7-.15-10.2-5.25-9.75-10.44A11.74,11.74,0,0,1,35.52,2a11.81,11.81,0,0,1,6.92-2,22.61,22.61,0,0,1,6,.93ZM104.61.46h0l-3.78,19.78h5.8l1.47-7.79,3.78,7.79h10.89l6.8-13.13.74,7.49-2.34-1-1.81,3.65,4.84,3h5.48L133.68.47h-6.26l-9.89,18.09-4.24-8.47L122.51.47h-6.88l-6.47,6.47L110.39.47ZM84.87.46,92.12.24c3.22-.07,6.82.72,7.95,4.16A4.86,4.86,0,0,1,98,10c3.08,2.18,2.32,6.69-.42,8.7-2.25,1.65-4.36,1.67-7,1.64l-9.16-.1Zm4.34,4.46-.53,3.15h3.61c1,0,2.09,0,2.53-1.16a1.47,1.47,0,0,0-1.57-2ZM87.32,15.4h3.86c1.2,0,2.71-.22,3-1.67A1.52,1.52,0,0,0,92.89,12a1.45,1.45,0,0,0-.36,0H87.91l-.59,3.44ZM71.16.47h0L60.31,20.24h3.11c2.62-.11,3.23-.85,3.7-1.47,2.36-3.91,4.09-7.61,6.19-11.67l.7,7.61-2.34-1-1.82,3.68,5.52,2.81h4.87L77.42.47ZM50.62.47H65.51l-1,5.5H60.17L57.45,20.24H51.67L54.39,6H49.66Z" transform="translate(0 0.01)"/><path class="cls-2" d="M27.21,20.23h4.91L25,9.5l9.08-9H26L8,18.6,11.29.46H6.84L0,4.93V10L4.11,8.09,3.55,9.76c-.63,3.49-1.27,7-1.89,10.47H14.88l5.47-5.84,2.24,3.41a5.65,5.65,0,0,0,4.62,2.44ZM16.54,7.87,11.77.46h5.45a5.65,5.65,0,0,1,4,2l.32.44Z" transform="translate(0 0.01)"/></svg>